<svg width="206" height="29" viewBox="0 0 206 29" fill="none" xmlns="http://www.w3.org/2000/svg">
<path d="M128.244 7.86721C128.905 7.86721 129.497 7.97311 130.019 8.1849C130.559 8.38156 131.081 8.69168 131.586 9.11526L131.273 9.45563C130.785 9.06231 130.315 8.77488 129.863 8.59335C129.41 8.41182 128.879 8.32105 128.27 8.32105C127.452 8.32105 126.764 8.54796 126.207 9.0018C125.668 9.4405 125.398 10.0305 125.398 10.7718C125.398 11.392 125.616 11.8988 126.051 12.2921C126.503 12.6703 127.295 13.0485 128.427 13.4267C129.715 13.8805 130.611 14.3495 131.116 14.8336C131.638 15.3025 131.899 15.9682 131.899 16.8304C131.899 17.7986 131.551 18.5853 130.855 19.1904C130.159 19.7955 129.28 20.098 128.218 20.098C127.4 20.098 126.695 19.9695 126.103 19.7123C125.511 19.4551 124.954 19.0845 124.432 18.6004L124.771 18.2827C125.311 18.7517 125.833 19.0996 126.338 19.3265C126.86 19.5383 127.487 19.6442 128.218 19.6442C129.123 19.6442 129.863 19.3946 130.437 18.8954C131.029 18.3962 131.325 17.7078 131.325 16.8304C131.325 16.301 131.221 15.8698 131.012 15.537C130.82 15.1891 130.498 14.8865 130.046 14.6293C129.61 14.357 128.975 14.0772 128.14 13.7897C126.938 13.3813 126.085 12.9577 125.581 12.519C125.076 12.0652 124.823 11.4828 124.823 10.7718C124.823 9.93972 125.154 9.25141 125.816 8.70681C126.477 8.14708 127.287 7.86721 128.244 7.86721Z" fill="#AD0202"/>
<path d="M137.172 20.098C136.684 20.098 136.293 19.9619 135.997 19.6896C135.718 19.4022 135.579 19.0013 135.579 18.4869V3.23811L136.154 3.17003V18.4869C136.154 19.2584 136.51 19.6442 137.224 19.6442C137.468 19.6442 137.738 19.5913 138.034 19.4854L138.216 19.8711C137.833 20.0224 137.485 20.098 137.172 20.098Z" fill="#AD0202"/>
<path d="M145.023 7.86721C146.433 7.86721 147.521 8.37399 148.287 9.38756C149.07 10.386 149.462 11.8988 149.462 13.9259C149.462 15.9682 149.061 17.5112 148.26 18.555C147.477 19.5837 146.381 20.098 144.971 20.098C143.561 20.098 142.464 19.5837 141.681 18.555C140.915 17.5112 140.532 15.9908 140.532 13.994C140.532 11.9668 140.932 10.4389 141.733 9.41025C142.534 8.38156 143.63 7.86721 145.023 7.86721ZM145.023 8.32105C143.804 8.32105 142.847 8.79001 142.151 9.72793C141.454 10.6659 141.106 12.0879 141.106 13.994C141.106 15.8698 141.437 17.2767 142.098 18.2146C142.777 19.1526 143.735 19.6215 144.971 19.6215C146.224 19.6215 147.19 19.1526 147.869 18.2146C148.548 17.2767 148.887 15.8471 148.887 13.9259C148.887 12.0349 148.548 10.628 147.869 9.70524C147.207 8.78245 146.259 8.32105 145.023 8.32105Z" fill="#AD0202"/>
<path d="M165.075 8.09413L162.176 19.8711H161.393L158.469 8.59335L155.544 19.8711H154.761L151.81 8.09413H152.411L155.153 19.3492L158.129 8.09413H158.834L161.785 19.3719L164.5 8.09413H165.075Z" fill="#AD0202"/>
<path d="M171.219 3.62387C170.54 3.62387 170 3.79027 169.6 4.12308C169.217 4.45589 169.025 4.98537 169.025 5.7115V8.09413H172.159L172.054 8.54796H169.025V19.8711H168.451V8.54796H166.545V8.09413H168.451V5.64343C168.451 4.85678 168.695 4.24411 169.182 3.8054C169.687 3.36669 170.348 3.14734 171.166 3.14734C172.037 3.14734 172.872 3.38182 173.673 3.85078L173.412 4.23654C173.029 4.02475 172.663 3.87347 172.315 3.78271C171.985 3.67681 171.619 3.62387 171.219 3.62387Z" fill="#AD0202"/>
<path d="M178.273 7.86721C179.683 7.86721 180.771 8.37399 181.537 9.38756C182.32 10.386 182.712 11.8988 182.712 13.9259C182.712 15.9682 182.311 17.5112 181.51 18.555C180.727 19.5837 179.631 20.098 178.221 20.098C176.811 20.098 175.714 19.5837 174.931 18.555C174.165 17.5112 173.782 15.9908 173.782 13.994C173.782 11.9668 174.182 10.4389 174.983 9.41025C175.784 8.38156 176.88 7.86721 178.273 7.86721ZM178.273 8.32105C177.054 8.32105 176.097 8.79001 175.401 9.72793C174.704 10.6659 174.356 12.0879 174.356 13.994C174.356 15.8698 174.687 17.2767 175.348 18.2146C176.027 19.1526 176.985 19.6215 178.221 19.6215C179.474 19.6215 180.44 19.1526 181.119 18.2146C181.798 17.2767 182.137 15.8471 182.137 13.9259C182.137 12.0349 181.798 10.628 181.119 9.70524C180.457 8.78245 179.509 8.32105 178.273 8.32105Z" fill="#AD0202"/>
<path d="M190.283 7.86721C191.692 7.86721 192.78 8.37399 193.546 9.38756C194.33 10.386 194.721 11.8988 194.721 13.9259C194.721 15.9682 194.321 17.5112 193.52 18.555C192.737 19.5837 191.64 20.098 190.23 20.098C188.82 20.098 187.724 19.5837 186.94 18.555C186.174 17.5112 185.792 15.9908 185.792 13.994C185.792 11.9668 186.192 10.4389 186.993 9.41025C187.793 8.38156 188.89 7.86721 190.283 7.86721ZM190.283 8.32105C189.064 8.32105 188.107 8.79001 187.41 9.72793C186.714 10.6659 186.366 12.0879 186.366 13.994C186.366 15.8698 186.697 17.2767 187.358 18.2146C188.037 19.1526 188.994 19.6215 190.23 19.6215C191.484 19.6215 192.45 19.1526 193.129 18.2146C193.807 17.2767 194.147 15.8471 194.147 13.9259C194.147 12.0349 193.807 10.628 193.129 9.70524C192.467 8.78245 191.518 8.32105 190.283 8.32105Z" fill="#AD0202"/>
<path d="M206 3.23811V19.8711H205.478L205.426 17.8743C204.625 19.3568 203.467 20.098 201.953 20.098C200.665 20.098 199.646 19.5761 198.898 18.5323C198.167 17.4734 197.801 15.9682 197.801 14.0167C197.801 12.1106 198.184 10.6129 198.95 9.52371C199.733 8.41938 200.804 7.86721 202.162 7.86721C203.519 7.86721 204.607 8.48745 205.426 9.72793V3.17003L206 3.23811ZM201.953 19.6215C202.754 19.6215 203.424 19.4097 203.963 18.9861C204.52 18.5474 205.008 17.9045 205.426 17.0574V10.4541C204.625 9.03205 203.537 8.32105 202.162 8.32105C201.013 8.32105 200.099 8.8127 199.42 9.79601C198.741 10.7642 198.402 12.1408 198.402 13.9259C198.402 15.7866 198.715 17.2011 199.342 18.1692C199.968 19.1374 200.839 19.6215 201.953 19.6215Z" fill="#AD0202"/>
<path d="M6.64249 11.2188C5.43097 11.9631 4.82521 13.0704 4.82521 14.5408C4.82521 15.4667 5.2012 16.338 5.95318 17.1549C6.72605 17.9718 8.02112 18.3803 9.83841 18.3803C11.6557 18.3803 13.379 17.8448 15.0083 16.7737C16.6376 15.7027 17.87 14.5318 18.7055 13.261L19.7708 14.9221C17.0762 18.8977 13.3268 20.8854 8.52244 20.8854C6.14117 20.8854 4.12545 20.3318 2.47527 19.2244C0.825089 18.0989 0 16.7828 0 15.2761C0 12.6438 1.3473 10.7377 4.04189 9.55774C3.1437 8.59562 2.6946 7.47011 2.6946 6.18122C2.6946 4.49296 3.53013 3.04069 5.2012 1.82441C6.89315 0.608138 8.84621 0 11.0604 0C13.2745 0 14.9769 0.490141 16.1676 1.47042C17.3791 2.4507 17.9849 3.73959 17.9849 5.33709H15.0083C15.0292 4.35681 14.7263 3.6216 14.0996 3.13146C13.4939 2.62316 12.6374 2.36901 11.5304 2.36901C10.4442 2.36901 9.46242 2.71393 8.58511 3.40376C7.60336 4.14804 7.11248 5.0194 7.11248 6.01784C7.11248 7.01627 7.4258 7.87856 8.05245 8.60469C10.1413 8.38685 11.7288 8.50485 12.815 8.95868C13.4834 9.23098 13.8176 9.66667 13.8176 10.2657C13.8176 10.8466 13.4312 11.2551 12.6583 11.4911C11.9064 11.7271 10.9977 11.8451 9.93241 11.8451C8.8671 11.8451 7.77046 11.6363 6.64249 11.2188Z" fill="#F46A06"/>
<path d="M24.2653 20.7221L25.4559 11.6817C25.4559 11.1734 25.3097 10.7559 25.0173 10.4291C24.7457 10.0842 24.2549 9.91174 23.5447 9.91174C22.8345 9.91174 22.2496 10.2113 21.79 10.8103C21.3305 11.3912 21.0381 12.0085 20.9127 12.662C20.1816 17.1822 19.7743 19.8689 19.6908 20.7221H15.4922L17.2155 7.92394C18.0928 7.72426 18.7612 7.62441 19.2208 7.62441C20.5367 7.62441 21.2574 8.00563 21.3827 8.76807C22.4062 8.00563 23.5238 7.62441 24.7353 7.62441C27.1583 7.62441 28.7041 8.2507 29.3725 9.50328C30.396 8.23255 31.8582 7.59718 33.7591 7.59718C35.1586 7.59718 36.2657 7.91487 37.0803 8.55023C37.895 9.16745 38.3023 9.94804 38.3023 10.892C38.3023 11.1643 38.2396 11.6454 38.1143 12.3352C37.6338 15.0582 37.3936 16.6557 37.3936 17.1277C37.3936 17.9809 37.7174 18.4075 38.3649 18.4075C38.908 18.4075 39.4825 18.0989 40.0882 17.4817C40.7149 16.8463 41.2162 15.8751 41.5922 14.5681C42.3024 15.2216 42.7306 15.739 42.8768 16.1202C41.7906 19.2789 39.8689 20.8582 37.1116 20.8582C35.8166 20.8582 34.8557 20.5133 34.229 19.8235C33.6024 19.1336 33.2891 18.4075 33.2891 17.6451L34.0411 11.6272C34.0411 11.1371 33.8948 10.7286 33.6024 10.4019C33.31 10.0751 32.84 9.91174 32.1924 9.91174C31.5658 9.91174 31.0122 10.1205 30.5318 10.538C30.0514 10.9556 29.7172 11.4911 29.5292 12.1446C28.9025 16.7556 28.4952 19.6147 28.3072 20.7221H24.2653Z" fill="#F46A06"/>
<path d="M54.5861 7.89671C53.7297 13.7784 53.3015 16.9099 53.3015 17.2911C53.3015 18.0172 53.6044 18.3803 54.2101 18.3803C54.7532 18.3803 55.3381 18.0626 55.9648 17.4272C56.6123 16.7737 57.1241 15.8025 57.5 14.5136C58.1894 15.1671 58.6071 15.6754 58.7533 16.0385C58.2729 17.7994 57.5105 19.0429 56.4661 19.769C55.4217 20.4951 54.3459 20.8582 53.2388 20.8582C51.4215 20.8582 50.1996 20.2501 49.5729 19.0338C48.4867 20.2501 47.035 20.8582 45.2177 20.8582C43.7137 20.8582 42.5544 20.5315 41.7398 19.8779C40.9252 19.2244 40.5178 18.3712 40.5178 17.3183C40.5178 17.0642 40.5701 16.6194 40.6745 15.984C41.1549 12.6075 41.5205 9.92081 41.7711 7.92394C42.4187 7.72426 43.014 7.62441 43.5571 7.62441C44.1002 7.62441 44.5075 7.64257 44.7791 7.67887C45.0506 7.71518 45.3117 7.85133 45.5624 8.08732C45.813 8.32332 45.9384 8.65915 45.9384 9.09484L44.9044 16.0385C44.8626 16.2563 44.8417 16.456 44.8417 16.6376C44.8417 17.7086 45.4057 18.2441 46.5337 18.2441C47.5781 18.2441 48.445 17.7994 49.1343 16.9099C49.1343 16.7102 49.1552 16.3925 49.1969 15.9568L50.2309 8.71361C50.3771 8.40501 50.6904 8.15086 51.1709 7.95117C51.6513 7.73333 52.2466 7.62441 52.9568 7.62441C53.6879 7.62441 54.231 7.71518 54.5861 7.89671Z" fill="#E2660C"/>
<path d="M60.6908 20.9127C59.4166 20.9127 58.414 20.6041 57.6829 19.9869C56.9518 19.3515 56.5863 18.4892 56.5863 17.4C56.5863 17.1095 57.1503 12.7981 58.2782 4.46573C58.5707 2.32363 59.354 0.971205 60.6282 0.40845C61.213 0.13615 61.9128 0 62.7274 0C65.4847 0 66.8633 1.10735 66.8633 3.32206C66.8633 3.5036 66.8529 3.69421 66.832 3.8939C66.6231 6.32645 64.8685 8.80438 61.5681 11.3277C61.4637 12.2172 61.3488 13.0795 61.2235 13.9146C60.9728 15.7843 60.8475 16.8191 60.8475 17.0188C60.8475 17.9628 61.3175 18.4347 62.2574 18.4347C63.281 18.4347 64.2314 17.9264 65.1087 16.9099C66.0069 15.8751 66.6962 14.559 67.1767 12.9615C67.3646 13.016 67.6258 13.1703 67.96 13.4244C68.2942 13.6604 68.524 13.8692 68.6493 14.0507C68.3151 15.5574 67.5631 17.0006 66.3933 18.3803C65.8085 19.0883 65.0669 19.6692 64.1687 20.123C63.1452 20.6494 61.9859 20.9127 60.6908 20.9127ZM61.9128 8.60469C63.8345 6.77121 64.7954 5.12833 64.7954 3.67606C64.7954 2.80469 64.4194 2.36901 63.6674 2.36901C63.187 2.40532 62.8632 2.67762 62.6961 3.18591C62.5499 3.69421 62.4037 4.52019 62.2574 5.66385C62.1321 6.80751 62.0486 7.51549 62.0068 7.78779L61.9128 8.60469Z" fill="#F46A06"/>
<path d="M79.1665 12.3897C80.8167 13.4426 81.6417 14.6861 81.6417 16.1202C81.6417 17.5543 80.9942 18.707 79.6991 19.5784C78.4041 20.4498 76.7748 20.8854 74.8113 20.8854C73.5371 20.8854 72.4718 20.6131 71.6153 20.0685C70.7798 19.5058 70.362 18.816 70.362 17.9991C70.362 17.1822 70.6754 16.5377 71.302 16.0657C71.9287 15.5756 72.712 15.2761 73.652 15.1671C73.2133 15.7117 72.994 16.2382 72.994 16.7465C72.994 17.2366 73.1924 17.636 73.5893 17.9446C73.9862 18.2532 74.4875 18.4075 75.0932 18.4075C75.699 18.4075 76.2003 18.2169 76.5972 17.8357C76.9941 17.4363 77.1925 16.9825 77.1925 16.4742C77.1925 15.6391 76.7434 14.8948 75.8452 14.2413C75.3021 13.8601 74.7173 13.5061 74.0906 13.1793C73.464 12.8344 73.1297 12.6529 73.088 12.6347C73.0044 12.5803 72.9209 12.5349 72.8373 12.4986C72.4613 12.8798 71.9182 13.4063 71.208 14.0779C70.4978 14.7315 69.9338 15.2579 69.5161 15.6573C68.3463 16.7646 67.6883 17.6905 67.5421 18.4347C67.5003 18.58 67.4795 18.8613 67.4795 19.2789C67.4795 19.6782 67.6152 20.0958 67.8868 20.5315C68.1792 20.9671 68.5239 21.2939 68.9207 21.5117C69.3176 21.7296 69.7041 21.902 70.08 22.0291C70.4769 22.1743 70.8111 22.2742 71.0827 22.3286C71.3751 22.3831 71.5213 22.4194 71.5213 22.4376C71.5213 22.5646 71.2916 22.7099 70.832 22.8732C69.9756 23.1455 69.0774 23.2817 68.1374 23.2817C67.2183 23.2817 66.3201 22.9912 65.4428 22.4103C64.2522 21.6116 63.6569 20.5496 63.6569 19.2244C63.6569 18.4075 63.8971 17.5997 64.3775 16.8009C65.234 15.385 67.2392 13.4426 70.3934 10.9737C69.6205 10.302 69.2341 9.58498 69.2341 8.82254C69.2341 8.06009 69.5578 7.41565 70.2054 6.8892C70.8738 6.36275 71.6571 6.09953 72.5553 6.09953C73.37 6.09953 74.0802 6.38091 74.6859 6.94366C75.0828 7.32488 75.2812 7.80595 75.2812 8.38685C75.2812 8.96776 75.0619 9.62128 74.6233 10.3474C76.8583 11.2188 78.3727 11.8995 79.1665 12.3897ZM72.3673 9.31267C72.8686 8.85884 73.1193 8.53208 73.1193 8.33239C73.1193 7.87856 72.8895 7.63349 72.43 7.59718C71.9078 7.59718 71.6467 7.85133 71.6467 8.35962C71.6467 8.66823 71.8869 8.98591 72.3673 9.31267Z" fill="#F46A06" fill-opacity="0.98"/>
<path d="M84.576 0.68075C85.0564 0.24507 85.6413 0.0272297 86.3306 0.0272297C87.0199 0.0272297 87.6048 0.24507 88.0852 0.68075C88.5866 1.09828 88.8372 1.60657 88.8372 2.20563C88.8372 2.8047 88.5866 3.31299 88.0852 3.73052C87.6048 4.14804 87.0199 4.35681 86.3306 4.35681C85.6413 4.35681 85.0564 4.14804 84.576 3.73052C84.0955 3.31299 83.8553 2.8047 83.8553 2.20563C83.8553 1.60657 84.0955 1.09828 84.576 0.68075ZM83.2914 8.65915C83.5002 8.33239 83.8971 8.08732 84.482 7.92394C85.0669 7.74241 85.6413 7.65164 86.2053 7.65164C86.7901 7.65164 87.3019 7.71518 87.7406 7.84225C86.9259 13.3064 86.5186 16.0657 86.5186 16.1202C86.4141 16.4833 86.3619 16.7919 86.3619 17.046C86.3619 17.282 86.3828 17.4908 86.4246 17.6723C86.5081 18.1443 86.8842 18.3803 87.5526 18.3803C88.2419 18.3803 88.8685 17.9991 89.4325 17.2366C90.0174 16.456 90.4561 15.5756 90.7485 14.5953C90.8947 14.6679 91.1245 14.8858 91.4378 15.2488C91.7511 15.6119 91.9391 15.8842 92.0018 16.0657C91.584 17.518 90.8738 18.6889 89.8712 19.5784C88.8685 20.4679 87.6675 20.9127 86.2679 20.9127C84.8684 20.9127 83.824 20.6131 83.1347 20.0141C82.4663 19.415 82.132 18.6435 82.132 17.6995C82.132 17.4998 82.1425 17.2911 82.1634 17.0732L83.2914 8.65915Z" fill="#AD0202"/>
<path d="M97.9063 20.7493C99.0551 22.5102 99.6295 23.9624 99.6295 25.1061C99.6295 26.2679 99.2222 27.2028 98.4076 27.9108C97.6138 28.6369 96.5694 29 95.2743 29C93.9792 29 92.9139 28.6823 92.0784 28.0469C91.2638 27.4297 90.8564 26.5674 90.8564 25.4601C90.8564 25.2423 90.8982 24.8066 90.9818 24.153L91.9531 16.8009C90.7207 15.3668 89.7076 14.2232 88.9138 13.37C89.624 12.5167 90.2193 12.0901 90.6998 12.0901C90.9295 12.0901 91.1384 12.19 91.3264 12.3897C91.5353 12.5894 91.88 12.9615 92.3604 13.5061L93.551 4.35681C93.7181 3.15868 94.0524 2.18748 94.5537 1.44319C95.2221 0.481064 96.4545 0 98.2509 0C99.5251 0 100.496 0.308607 101.165 0.925821C101.833 1.52488 102.167 2.35994 102.167 3.43099C102.167 4.8651 101.624 6.28106 100.538 7.67887C99.4729 9.07668 98.23 10.302 96.8096 11.3549L96.0263 17.9174C96.3814 18.2623 96.8827 18.4347 97.5303 18.4347C98.8253 18.4347 99.9011 17.9628 100.758 17.0188C101.635 16.0567 102.397 14.7042 103.045 12.9615C103.337 13.1067 103.64 13.2973 103.953 13.5333C104.288 13.7512 104.476 13.9055 104.517 13.9962C104.037 16.0113 103.201 17.5725 102.011 18.6798C100.82 19.7872 99.452 20.477 97.9063 20.7493ZM99.3789 2.36901C99.2744 2.35086 99.17 2.34178 99.0656 2.34178C98.5016 2.34178 98.1256 2.65947 97.9376 3.29483C97.7496 3.9302 97.5198 5.39155 97.2483 7.67887L97.1229 8.71361C98.0211 7.91487 98.7418 7.07074 99.2849 6.18122C99.8489 5.27355 100.131 4.45665 100.131 3.73052C100.131 2.98623 99.8802 2.53239 99.3789 2.36901ZM95.1803 24.861C95.1594 24.9518 95.149 25.1424 95.149 25.4329C95.149 25.7415 95.2534 25.9956 95.4623 26.1953C95.6712 26.395 95.9428 26.4948 96.277 26.4948C96.6321 26.4948 96.9454 26.3678 97.2169 26.1136C97.4885 25.8776 97.6243 25.5055 97.6243 24.9972C97.6243 24.0351 96.9663 22.7189 95.6503 21.0488L95.1803 24.861Z" fill="#F46A06"/>
<path d="M107.473 28.8094C106.282 28.8094 105.259 28.4917 104.402 27.8563C103.546 27.2391 103.117 26.3315 103.117 25.1333C103.117 23.6629 103.974 22.2288 105.687 20.831C104.475 20.7402 103.504 20.3953 102.773 19.7962C102.042 19.1972 101.676 18.353 101.676 17.2638C101.676 16.7556 101.749 15.9931 101.896 14.9765C102.042 13.9599 102.198 12.8617 102.366 11.6817C102.533 10.5017 102.71 9.24914 102.898 7.92394C103.546 7.72426 104.141 7.62441 104.684 7.62441C105.227 7.62441 105.635 7.64257 105.906 7.67887C106.178 7.71518 106.439 7.85133 106.689 8.08732C106.94 8.32332 107.065 8.65915 107.065 9.09484L106.031 16.0385C105.99 16.329 105.969 16.5286 105.969 16.6376C105.969 17.7086 106.533 18.2441 107.661 18.2441C108.684 18.2441 109.52 17.8266 110.167 16.9915C110.23 16.574 110.387 15.3759 110.637 13.3972C110.888 11.4003 111.097 9.8482 111.264 8.74084C111.452 8.39593 111.838 8.12363 112.423 7.92394C113.029 7.72426 113.52 7.62441 113.896 7.62441C114.564 7.62441 115.17 7.69703 115.713 7.84225L114.241 17.8901C116.684 18.2714 118.147 19.7327 118.627 22.2742C118.544 22.6191 118.147 23.1637 117.436 23.908C117.019 21.6388 115.87 20.2592 113.99 19.769L113.489 23.1728C113.259 24.8066 112.663 26.1499 111.703 27.2028C110.742 28.2739 109.332 28.8094 107.473 28.8094ZM105.561 24.616C105.561 25.215 105.729 25.6598 106.063 25.9502C106.397 26.2407 106.836 26.3859 107.379 26.3859C107.943 26.3859 108.371 26.1862 108.663 25.7869C108.956 25.3875 109.186 24.5887 109.353 23.3906L109.76 20.3953C107.024 21.6297 105.624 23.0366 105.561 24.616Z" fill="#F46A06" fill-opacity="0.99"/>
</svg>
